<svg width="800" height="300" viewBox="0 0 800 300" xmlns="http://www.w3.org/2000/svg" style="background-color: #000000; font-family: 'Courier New', Courier, monospace; cursor: crosshair;">
  <defs>
    <pattern id="scanlines" width="4" height="4" patternUnits="userSpaceOnUse">
      <rect width="4" height="1" fill="#ffffff" opacity="0.03"/>
    </pattern>

    <pattern id="grid" width="20" height="20" patternUnits="userSpaceOnUse">
      <path d="M 20 0 L 0 0 0 20" fill="none" stroke="#ffffff" stroke-width="0.5" opacity="0.05"/>
    </pattern>

    <linearGradient id="cyanData" x1="0%" y1="0%" x2="100%" y2="0%">
      <stop offset="0%" stop-color="#42c2c2" stop-opacity="0"/>
      <stop offset="100%" stop-color="#42c2c2" stop-opacity="1"/>
    </linearGradient>
  </defs>

  <rect width="100%" height="100%" fill="url(#grid)" />

  <rect x="20" y="10" width="160" height="20" fill="#e0e0e0" />
  <text x="25" y="24" fill="#000000" font-size="12" font-weight="bold">LOGIC.ENGINE</text>
  <text x="500" y="24" fill="#e0e0e0" font-size="12">DATA.EXTRACTION_ANOMALY.DETECT</text>
  <line x1="20" y1="35" x2="780" y2="35" stroke="#e0e0e0" stroke-width="1" />
  <line x1="20" y1="38" x2="780" y2="38" stroke="#e0e0e0" stroke-width="2" />
  <text x="20" y="52" fill="#a0a0a0" font-size="9">ECMS_OS // DATA.DISPLAY // SHIP.DIAGNOSTIC // ANOMALY_SCAN_MATRIX</text>
  <text x="745" y="52" fill="#a0a0a0" font-size="9">SC007</text>

  <g transform="translate(15, 75)" fill="#e0e0e0" font-size="10">
    <rect x="0" y="0" width="4" height="4" />
    <text x="10" y="6">MDIR</text>
    <rect x="-5" y="-3" width="40" height="12" fill="none" stroke="#e0e0e0" stroke-width="1" opacity="0.3"/>
    
    <rect x="0" y="25" width="4" height="4" />
    <text x="10" y="31">BACK</text>
    <rect x="-5" y="22" width="40" height="12" fill="none" stroke="#e0e0e0" stroke-width="1" opacity="0.3"/>
    
    <rect x="0" y="60" width="4" height="4" />
    <text x="10" y="66">SEL</text>
    
    <rect x="0" y="85" width="4" height="4" />
    <text x="10" y="91">EXTR</text>

    <rect x="0" y="110" width="4" height="4" />
    <text x="10" y="116">SCAN</text>

    <rect x="0" y="145" width="4" height="4" />
    <text x="10" y="151">CONS</text>

    <rect x="0" y="170" width="4" height="4" />
    <text x="10" y="176">SYS</text>
  </g>

  <g transform="translate(745, 75)" fill="#e0e0e0" font-size="10">
    <rect x="30" y="0" width="4" height="4" />
    <text x="-5" y="6">DISP</text>
    
    <rect x="30" y="25" width="4" height="4" />
    <text x="-5" y="31">TGT</text>
    
    <rect x="30" y="50" width="4" height="4" />
    <text x="-5" y="56">NUM</text>
    
    <rect x="30" y="75" width="4" height="4" />
    <text x="-5" y="81">CYCL</text>

    <rect x="30" y="145" width="4" height="4" />
    <text x="-5" y="151">DIAG</text>

    <rect x="30" y="170" width="4" height="4" />
    <text x="-5" y="176">TEST</text>
  </g>

  <g transform="translate(100, 260)" fill="#e0e0e0" font-size="10">
    <rect x="0" y="0" width="30" height="18" fill="none" stroke="#e0e0e0" stroke-width="1" />
    <rect x="3" y="15" width="24" height="1" />
    <text x="12" y="12">1</text>

    <rect x="40" y="0" width="30" height="18" fill="none" stroke="#e0e0e0" stroke-width="1" />
    <rect x="43" y="15" width="24" height="1" />
    <text x="52" y="12">2</text>

    <rect x="80" y="0" width="30" height="18" fill="none" stroke="#e0e0e0" stroke-width="1" />
    <rect x="83" y="15" width="24" height="1" />
    <text x="92" y="12">3</text>
    
    <rect x="120" y="0" width="30" height="18" fill="none" stroke="#e0e0e0" stroke-width="1" />
    <rect x="123" y="15" width="24" height="1" />
    <text x="132" y="12">4</text>

    <rect x="160" y="0" width="30" height="18" fill="none" stroke="#e0e0e0" stroke-width="1" />
    <rect x="163" y="15" width="24" height="1" />
    <text x="172" y="12">5</text>

    <rect x="200" y="0" width="30" height="18" fill="none" stroke="#e0e0e0" stroke-width="1" />
    <rect x="203" y="15" width="24" height="1" />
    <text x="212" y="12">6</text>

    <rect x="240" y="0" width="30" height="18" fill="none" stroke="#e0e0e0" stroke-width="1" />
    <rect x="243" y="15" width="24" height="1" />
    <text x="252" y="12">7</text>

    <rect x="280" y="0" width="30" height="18" fill="none" stroke="#e0e0e0" stroke-width="1" />
    <rect x="283" y="15" width="24" height="1" />
    <text x="292" y="12">8</text>

    <rect x="320" y="0" width="30" height="18" fill="none" stroke="#e0e0e0" stroke-width="1" />
    <rect x="323" y="15" width="24" height="1" />
    <text x="332" y="12">9</text>

    <rect x="360" y="0" width="30" height="18" fill="none" stroke="#e0e0e0" stroke-width="1" />
    <rect x="363" y="15" width="24" height="1" />
    <text x="372" y="12">0</text>
    
    <rect x="420" y="16" width="15" height="2" fill="#ff0000" />
    <rect x="437" y="16" width="4" height="2" fill="#cc6633" />
    <rect x="443" y="16" width="60" height="2" fill="#42c2c2" />
  </g>

  <g transform="translate(100, 65)">
    <rect x="0" y="0" width="240" height="8" fill="none" stroke="#e0e0e0" stroke-width="1" opacity="0.5" />
    <g transform="scale(0.8) translate(0, 1)">
      <rect x="2" y="2" width="12" height="6" fill="#42c2c2" />
      <rect x="16" y="2" width="12" height="6" fill="#42c2c2" />
      <rect x="30" y="2" width="12" height="6" fill="#42c2c2" />
      <rect x="44" y="2" width="12" height="6" fill="#42c2c2" />
      <rect x="58" y="2" width="12" height="6" fill="#42c2c2" />
      <rect x="72" y="2" width="12" height="6" fill="#42c2c2" />
      <rect x="86" y="2" width="12" height="6" fill="#42c2c2" />
      <rect x="100" y="2" width="12" height="6" fill="#42c2c2" />
      <rect x="114" y="2" width="12" height="6" fill="#42c2c2" />
      <rect x="128" y="2" width="12" height="6" fill="#42c2c2" />
      <rect x="142" y="2" width="12" height="6" fill="#42c2c2" />
      <rect x="156" y="2" width="12" height="6" fill="#42c2c2" />
      <rect x="170" y="2" width="12" height="6" fill="#42c2c2" />
      <rect x="184" y="2" width="12" height="6" fill="#42c2c2" />
      <rect x="198" y="2" width="12" height="6" fill="#cc6633" />
      <rect x="212" y="2" width="12" height="6" fill="#cc6633" />
      <rect x="226" y="2" width="12" height="6" fill="#ff0000" />
      <rect x="240" y="2" width="12" height="6" fill="#e0e0e0" opacity="0.2"/>
      <rect x="254" y="2" width="12" height="6" fill="#e0e0e0" opacity="0.2"/>
      <rect x="268" y="2" width="12" height="6" fill="#e0e0e0" opacity="0.2"/>
      <rect x="282" y="2" width="12" height="6" fill="#e0e0e0" opacity="0.2"/>
    </g>
  </g>

  <g transform="translate(100, 90) scale(0.55)">
    <rect x="0" y="0" width="50" height="40" fill="none" stroke="#e0e0e0" stroke-width="1.5" />
    <rect x="2" y="2" width="46" height="36" fill="url(#scanlines)" />
    <text x="10" y="24" fill="#e0e0e0" font-size="10">SRC1</text>
    <rect x="50" y="15" width="4" height="10" fill="#42c2c2" />

    <rect x="0" y="120" width="50" height="40" fill="none" stroke="#e0e0e0" stroke-width="1.5" />
    <rect x="2" y="122" width="46" height="36" fill="url(#scanlines)" />
    <text x="10" y="144" fill="#e0e0e0" font-size="10">SRC2</text>
    <rect x="50" y="135" width="4" height="10" fill="#cc6633" />
    
    <rect x="0" y="240" width="50" height="40" fill="none" stroke="#e0e0e0" stroke-width="1.5" />
    <rect x="2" y="242" width="46" height="36" fill="url(#scanlines)" />
    <text x="10" y="264" fill="#e0e0e0" font-size="10">SRC3</text>
    <rect x="50" y="255" width="4" height="10" fill="#42c2c2" />

    <path d="M 54 20 H 120 V 140 H 180" fill="none" stroke="#e0e0e0" stroke-width="2" stroke-opacity="0.3"/>
    <path d="M 54 140 H 180" fill="none" stroke="#e0e0e0" stroke-width="2" stroke-opacity="0.3"/>
    <path d="M 54 260 H 120 V 140 H 180" fill="none" stroke="#e0e0e0" stroke-width="2" stroke-opacity="0.3"/>

    <path d="M 54 20 H 120 V 140 H 180" fill="none" stroke="#42c2c2" stroke-width="2" stroke-dasharray="10 30">
      <animate attributeName="stroke-dashoffset" from="80" to="0" dur="2s" repeatCount="indefinite" />
    </path>
    <path d="M 54 260 H 120 V 140 H 180" fill="none" stroke="#42c2c2" stroke-width="2" stroke-dasharray="10 30">
      <animate attributeName="stroke-dashoffset" from="80" to="0" dur="2s" repeatCount="indefinite" />
    </path>

    <path d="M 54 140 H 180" fill="none" stroke="#cc6633" stroke-width="2" stroke-dasharray="5 15">
      <animate attributeName="stroke-dashoffset" from="40" to="0" dur="1.5s" repeatCount="indefinite" />
    </path>

    <circle cx="180" cy="140" r="6" fill="#000" stroke="#e0e0e0" stroke-width="2" />
    <circle cx="180" cy="140" r="2" fill="#e0e0e0" />
    
    <path d="M 186 140 H 260" fill="none" stroke="#e0e0e0" stroke-width="3" />
    <path d="M 186 140 H 260" fill="none" stroke="#ffffff" stroke-width="2" stroke-dasharray="15 15">
      <animate attributeName="stroke-dashoffset" from="30" to="0" dur="0.8s" repeatCount="indefinite" />
    </path>

    <g transform="translate(270, 90)">
      <rect x="0" y="0" width="120" height="100" fill="none" stroke="#e0e0e0" stroke-width="2" />
      
      <rect x="40" y="-20" width="40" height="140" fill="none" stroke="#e0e0e0" stroke-width="1" />
      <rect x="-20" y="30" width="160" height="40" fill="none" stroke="#e0e0e0" stroke-width="1" />
      
      <rect x="40" y="30" width="40" height="40" fill="#e0e0e0" opacity="0.1" />
      <line x1="40" y1="30" x2="80" y2="70" stroke="#e0e0e0" stroke-width="1" />
      <line x1="80" y1="30" x2="40" y2="70" stroke="#e0e0e0" stroke-width="1" />
      <rect x="55" y="45" width="10" height="10" fill="#42c2c2" />

      <rect x="45" y="-15" width="30" height="10" fill="none" stroke="#42c2c2" stroke-width="1" />
      <rect x="45" y="105" width="30" height="10" fill="none" stroke="#42c2c2" stroke-width="1" />

      <g transform="translate(-15, 35)">
        <rect x="0" y="0" width="30" height="30" fill="url(#scanlines)" />
        <rect x="0" y="0" width="30" height="30" fill="#ff0000" opacity="0.8">
          <animate attributeName="opacity" values="0.8; 0.2; 0.8" dur="0.5s" repeatCount="indefinite" />
        </rect>
        <rect x="0" y="0" width="30" height="30" fill="none" stroke="#ff0000" stroke-width="2" />
        <polygon points="30,10 35,15 30,20" fill="#ff0000" />
        <text x="-65" y="45" fill="#ff0000" font-size="10" font-weight="bold">
          ANMLY.DETC
          <animate attributeName="opacity" values="1;0;1" dur="1s" repeatCount="indefinite" />
        </text>
      </g>

      <rect x="105" y="35" width="30" height="30" fill="none" stroke="#42c2c2" stroke-width="1" />
      <rect x="107" y="37" width="26" height="26" fill="url(#scanlines)" />
    </g>

    <path d="M 390 140 H 450 V 10 H 510" fill="none" stroke="#e0e0e0" stroke-width="2" stroke-opacity="0.3"/>
    <path d="M 390 140 H 450 V 10 H 510" fill="none" stroke="#42c2c2" stroke-width="2" stroke-dasharray="8 12">
      <animate attributeName="stroke-dashoffset" from="20" to="0" dur="1s" repeatCount="indefinite" />
    </path>
  </g>

  <rect x="520" y="70" width="200" height="14" fill="#e0e0e0" opacity="0.1" />
  <text x="525" y="81" fill="#e0e0e0" font-size="10" font-weight="bold">LOGIC.EVAL.STATUS</text>

  <g transform="translate(520, 100)" font-size="9" fill="#e0e0e0">
    <text x="0" y="0" fill="#808080">SUBSYS</text>
    <text x="60" y="0" fill="#808080">VAL</text>
    <text x="130" y="0" fill="#808080">STS</text>
    <line x1="0" y1="5" x2="180" y2="5" stroke="#404040" stroke-width="1" />

    <text x="0" y="20">INGST.01</text>
    <text x="60" y="20">420.1 MB</text>
    <text x="130" y="20">NML</text>
    <rect x="165" y="13" width="5" height="5" fill="#42c2c2" />

    <text x="0" y="35">INGST.02</text>
    <text x="60" y="35">312.9 MB</text>
    <text x="130" y="35">WRN</text>
    <rect x="165" y="28" width="5" height="5" fill="#cc6633" />

    <text x="0" y="50">INGST.03</text>
    <text x="60" y="50">142.0 MB</text>
    <text x="130" y="50">NML</text>
    <rect x="165" y="43" width="5" height="5" fill="#42c2c2" />

    <line x1="0" y1="60" x2="180" y2="60" stroke="#404040" stroke-width="1" stroke-dasharray="2 2"/>

    <text x="0" y="75" fill="#ff0000">PRC.NODE.2</text>
    <text x="60" y="75" fill="#ff0000">0x0A99</text>
    <text x="130" y="75" fill="#ff0000">ERR</text>
    <rect x="165" y="68" width="5" height="5" fill="#ff0000">
      <animate attributeName="opacity" values="1;0;1" dur="0.5s" repeatCount="indefinite" />
    </rect>

    <text x="0" y="90">OUT.TRNK.1</text>
    <text x="60" y="90">850.5 MB</text>
    <text x="130" y="90">NML</text>
    <rect x="165" y="83" width="5" height="5" fill="#42c2c2" />
  </g>

  <g transform="translate(520, 215)" font-size="9" fill="#e0e0e0">
    <rect x="0" y="-12" width="200" height="75" fill="none" stroke="#e0e0e0" stroke-width="1" opacity="0.3" />
    
    <text x="5" y="0" fill="#42c2c2">> STRM INGESTION...</text>
    <text x="5" y="11">> OBJ_ID DETECTED: 8492</text>
    <text x="5" y="22" fill="#cc6633">> PACKET_LOSS: 0.04%</text>
    <text x="5" y="33" fill="#ff0000">> CRIT: ANOMALY FOUND</text>
    <text x="5" y="44">> SECT_ISOLATION_INIT</text>
    <text x="5" y="55" fill="#42c2c2">> AWAITING.CMND<tspan font-weight="bold"><animate attributeName="opacity" values="1;0;1" dur="0.8s" repeatCount="indefinite" />_</tspan></text>
  </g>

  <rect width="100%" height="100%" fill="url(#scanlines)" pointer-events="none" />
</svg>
